<mxfile host="app.diagrams.net" agent="Mozilla/5.0 (Windows NT 10.0; Win64; x64) AppleWebKit/537.36 (KHTML, like Gecko) Chrome/130.0.0.0 Safari/537.36" version="24.8.3">
  <diagram name="Page-1" id="d66fe2ae-3e9f-cf2f-6d29-e24063ad5d60">
    <mxGraphModel dx="5091" dy="1953" grid="0" gridSize="10" guides="1" tooltips="1" connect="1" arrows="1" fold="1" page="1" pageScale="1" pageWidth="1100" pageHeight="850" background="none" math="0" shadow="0">
      <root>
        <mxCell id="0" />
        <mxCell id="1" parent="0" />
        <mxCell id="IWd8f2sbjNIuQyX2ivtv-33" style="rounded=0;orthogonalLoop=1;jettySize=auto;html=1;strokeColor=#736CA8;fontColor=#1A1A1A;" edge="1" parent="1" source="IWd8f2sbjNIuQyX2ivtv-32" target="IWd8f2sbjNIuQyX2ivtv-27">
          <mxGeometry relative="1" as="geometry" />
        </mxCell>
        <mxCell id="IWd8f2sbjNIuQyX2ivtv-2" value="" style="shape=actor;whiteSpace=wrap;html=1;opacity=70;labelBackgroundColor=none;fillColor=#5D7F99;strokeColor=#D0CEE2;fontColor=#1A1A1A;" vertex="1" parent="1">
          <mxGeometry x="-2785" y="-810" width="52.35" height="67" as="geometry" />
        </mxCell>
        <mxCell id="IWd8f2sbjNIuQyX2ivtv-5" value="&lt;font style=&quot;font-size: 20px;&quot;&gt;(1,0)&lt;/font&gt;" style="verticalAlign=top;verticalLabelPosition=bottom;labelPosition=center;align=center;html=1;gradientDirection=north;strokeWidth=2;shape=mxgraph.networks.pc;rounded=1;shadow=0;comic=0;labelBackgroundColor=none;fillColor=#dae8fc;strokeColor=#6c8ebf;" vertex="1" parent="1">
          <mxGeometry x="-3019" y="-604" width="100" height="70" as="geometry" />
        </mxCell>
        <mxCell id="IWd8f2sbjNIuQyX2ivtv-13" style="rounded=1;orthogonalLoop=1;jettySize=auto;html=1;entryX=0.626;entryY=0.086;entryDx=0;entryDy=0;entryPerimeter=0;labelBackgroundColor=none;fontColor=default;strokeColor=#736CA8;curved=0;" edge="1" parent="1" source="IWd8f2sbjNIuQyX2ivtv-9" target="IWd8f2sbjNIuQyX2ivtv-5">
          <mxGeometry relative="1" as="geometry" />
        </mxCell>
        <mxCell id="IWd8f2sbjNIuQyX2ivtv-16" value="&lt;font style=&quot;font-size: 20px;&quot;&gt;(2,0)&lt;/font&gt;" style="verticalAlign=top;verticalLabelPosition=bottom;labelPosition=center;align=center;html=1;gradientDirection=north;strokeWidth=2;shape=mxgraph.networks.pc;rounded=1;shadow=0;comic=0;labelBackgroundColor=none;fillColor=#5D7F99;strokeColor=#D0CEE2;fontColor=#1A1A1A;" vertex="1" parent="1">
          <mxGeometry x="-3019" y="-375" width="100" height="70" as="geometry" />
        </mxCell>
        <mxCell id="IWd8f2sbjNIuQyX2ivtv-17" style="edgeStyle=orthogonalEdgeStyle;rounded=0;orthogonalLoop=1;jettySize=auto;html=1;entryX=0.5;entryY=0.07;entryDx=0;entryDy=0;entryPerimeter=0;labelBackgroundColor=none;fontColor=default;strokeColor=#736CA8;endArrow=classic;endFill=1;startArrow=classic;startFill=1;" edge="1" parent="1" source="IWd8f2sbjNIuQyX2ivtv-42" target="IWd8f2sbjNIuQyX2ivtv-16">
          <mxGeometry relative="1" as="geometry" />
        </mxCell>
        <mxCell id="IWd8f2sbjNIuQyX2ivtv-22" value="" style="edgeStyle=orthogonalEdgeStyle;rounded=0;orthogonalLoop=1;jettySize=auto;html=1;labelBackgroundColor=none;fontColor=default;strokeColor=#736CA8;startArrow=none;startFill=0;endArrow=none;endFill=0;shape=link;" edge="1" parent="1">
          <mxGeometry relative="1" as="geometry">
            <mxPoint x="-2920" y="-108" as="sourcePoint" />
            <mxPoint x="-2559" y="-108" as="targetPoint" />
          </mxGeometry>
        </mxCell>
        <mxCell id="IWd8f2sbjNIuQyX2ivtv-62" value="" style="edgeStyle=orthogonalEdgeStyle;rounded=0;orthogonalLoop=1;jettySize=auto;html=1;strokeColor=#736CA8;fontColor=#1A1A1A;" edge="1" parent="1" source="IWd8f2sbjNIuQyX2ivtv-18" target="IWd8f2sbjNIuQyX2ivtv-61">
          <mxGeometry relative="1" as="geometry" />
        </mxCell>
        <mxCell id="IWd8f2sbjNIuQyX2ivtv-18" value="&lt;font style=&quot;font-size: 20px;&quot;&gt;(3,0)&lt;/font&gt;" style="verticalAlign=top;verticalLabelPosition=bottom;labelPosition=center;align=center;html=1;gradientDirection=north;strokeWidth=2;shape=mxgraph.networks.pc;rounded=1;shadow=0;comic=0;labelBackgroundColor=none;fillColor=#5D7F99;strokeColor=#D0CEE2;fontColor=#1A1A1A;" vertex="1" parent="1">
          <mxGeometry x="-3019" y="-139" width="100" height="70" as="geometry" />
        </mxCell>
        <mxCell id="IWd8f2sbjNIuQyX2ivtv-19" style="edgeStyle=orthogonalEdgeStyle;rounded=0;orthogonalLoop=1;jettySize=auto;html=1;entryX=0.5;entryY=0.07;entryDx=0;entryDy=0;entryPerimeter=0;labelBackgroundColor=none;fontColor=default;strokeColor=#736CA8;startArrow=classic;startFill=1;endArrow=classic;endFill=1;" edge="1" parent="1" source="IWd8f2sbjNIuQyX2ivtv-44" target="IWd8f2sbjNIuQyX2ivtv-18">
          <mxGeometry relative="1" as="geometry" />
        </mxCell>
        <mxCell id="IWd8f2sbjNIuQyX2ivtv-26" value="" style="edgeStyle=orthogonalEdgeStyle;rounded=0;orthogonalLoop=1;jettySize=auto;html=1;strokeColor=#736CA8;fontColor=#1A1A1A;startArrow=classic;startFill=1;endArrow=classic;endFill=1;" edge="1" parent="1" source="IWd8f2sbjNIuQyX2ivtv-47" target="IWd8f2sbjNIuQyX2ivtv-25">
          <mxGeometry relative="1" as="geometry" />
        </mxCell>
        <mxCell id="IWd8f2sbjNIuQyX2ivtv-20" value="&lt;font style=&quot;font-size: 20px;&quot;&gt;(4,0)&lt;/font&gt;" style="verticalAlign=top;verticalLabelPosition=bottom;labelPosition=center;align=center;html=1;gradientDirection=north;strokeWidth=2;shape=mxgraph.networks.pc;rounded=1;shadow=0;comic=0;labelBackgroundColor=none;fillColor=#ffe6cc;strokeColor=#d79b00;" vertex="1" parent="1">
          <mxGeometry x="-2581" y="-139" width="100" height="70" as="geometry" />
        </mxCell>
        <mxCell id="IWd8f2sbjNIuQyX2ivtv-28" value="" style="edgeStyle=orthogonalEdgeStyle;rounded=0;orthogonalLoop=1;jettySize=auto;html=1;strokeColor=#736CA8;fontColor=#1A1A1A;startArrow=classic;startFill=1;endArrow=classic;endFill=1;exitX=0.5;exitY=0.07;exitDx=0;exitDy=0;exitPerimeter=0;" edge="1" parent="1" source="IWd8f2sbjNIuQyX2ivtv-35" target="IWd8f2sbjNIuQyX2ivtv-27">
          <mxGeometry relative="1" as="geometry" />
        </mxCell>
        <mxCell id="IWd8f2sbjNIuQyX2ivtv-60" value="" style="edgeStyle=orthogonalEdgeStyle;rounded=0;orthogonalLoop=1;jettySize=auto;html=1;strokeColor=#736CA8;fontColor=#1A1A1A;" edge="1" parent="1" source="IWd8f2sbjNIuQyX2ivtv-25" target="IWd8f2sbjNIuQyX2ivtv-59">
          <mxGeometry relative="1" as="geometry" />
        </mxCell>
        <mxCell id="IWd8f2sbjNIuQyX2ivtv-25" value="&lt;font style=&quot;font-size: 20px;&quot;&gt;(5,0)&lt;/font&gt;" style="verticalAlign=top;verticalLabelPosition=bottom;labelPosition=center;align=center;html=1;gradientDirection=north;strokeWidth=2;shape=mxgraph.networks.pc;rounded=1;shadow=0;comic=0;labelBackgroundColor=none;fillColor=#5D7F99;strokeColor=#D0CEE2;fontColor=#1A1A1A;" vertex="1" parent="1">
          <mxGeometry x="-2581" y="-377" width="100" height="70" as="geometry" />
        </mxCell>
        <mxCell id="IWd8f2sbjNIuQyX2ivtv-27" value="&lt;font style=&quot;font-size: 20px;&quot;&gt;(6,0)&lt;/font&gt;" style="verticalAlign=top;verticalLabelPosition=bottom;labelPosition=center;align=center;html=1;gradientDirection=north;strokeWidth=2;shape=mxgraph.networks.pc;rounded=1;shadow=0;comic=0;labelBackgroundColor=none;fillColor=#dae8fc;strokeColor=#6c8ebf;" vertex="1" parent="1">
          <mxGeometry x="-2581" y="-604" width="100" height="70" as="geometry" />
        </mxCell>
        <mxCell id="IWd8f2sbjNIuQyX2ivtv-29" value="" style="rounded=1;orthogonalLoop=1;jettySize=auto;html=1;entryX=0.626;entryY=0.086;entryDx=0;entryDy=0;entryPerimeter=0;labelBackgroundColor=none;fontColor=default;strokeColor=#736CA8;curved=0;" edge="1" parent="1" source="IWd8f2sbjNIuQyX2ivtv-2" target="IWd8f2sbjNIuQyX2ivtv-9">
          <mxGeometry relative="1" as="geometry">
            <mxPoint x="-2816" y="-769" as="sourcePoint" />
            <mxPoint x="-2956" y="-598" as="targetPoint" />
          </mxGeometry>
        </mxCell>
        <mxCell id="IWd8f2sbjNIuQyX2ivtv-9" value="" style="verticalAlign=top;verticalLabelPosition=bottom;labelPosition=center;align=center;html=1;gradientDirection=north;strokeWidth=2;shape=mxgraph.networks.firewall;rounded=1;shadow=0;comic=0;labelBackgroundColor=none;fillColor=#5D7F99;strokeColor=#D0CEE2;fontColor=#1A1A1A;" vertex="1" parent="1">
          <mxGeometry x="-2883" y="-723" width="60" height="62" as="geometry" />
        </mxCell>
        <mxCell id="IWd8f2sbjNIuQyX2ivtv-34" value="" style="rounded=0;orthogonalLoop=1;jettySize=auto;html=1;strokeColor=#736CA8;fontColor=#1A1A1A;" edge="1" parent="1" source="IWd8f2sbjNIuQyX2ivtv-2" target="IWd8f2sbjNIuQyX2ivtv-32">
          <mxGeometry relative="1" as="geometry">
            <mxPoint x="-2748" y="-783" as="sourcePoint" />
            <mxPoint x="-2566" y="-604" as="targetPoint" />
          </mxGeometry>
        </mxCell>
        <mxCell id="IWd8f2sbjNIuQyX2ivtv-32" value="" style="verticalAlign=top;verticalLabelPosition=bottom;labelPosition=center;align=center;html=1;gradientDirection=north;strokeWidth=2;shape=mxgraph.networks.firewall;rounded=1;shadow=0;comic=0;labelBackgroundColor=none;fillColor=#5D7F99;strokeColor=#D0CEE2;fontColor=#1A1A1A;" vertex="1" parent="1">
          <mxGeometry x="-2685" y="-721.5" width="60" height="62" as="geometry" />
        </mxCell>
        <mxCell id="IWd8f2sbjNIuQyX2ivtv-36" value="&lt;font style=&quot;font-size: 24px;&quot;&gt;http&lt;/font&gt;" style="text;html=1;align=center;verticalAlign=middle;resizable=0;points=[];autosize=1;strokeColor=none;fillColor=none;fontColor=#1A1A1A;fontSize=24;" vertex="1" parent="1">
          <mxGeometry x="-2945" y="-705" width="58" height="41" as="geometry" />
        </mxCell>
        <mxCell id="IWd8f2sbjNIuQyX2ivtv-37" value="&lt;font style=&quot;font-size: 24px;&quot;&gt;http&lt;/font&gt;" style="text;html=1;align=center;verticalAlign=middle;resizable=0;points=[];autosize=1;strokeColor=none;fillColor=none;fontColor=#1A1A1A;fontSize=24;" vertex="1" parent="1">
          <mxGeometry x="-2603" y="-712" width="58" height="41" as="geometry" />
        </mxCell>
        <mxCell id="IWd8f2sbjNIuQyX2ivtv-38" value="&lt;font style=&quot;font-size: 24px;&quot;&gt;ssh/ftp&lt;/font&gt;" style="text;html=1;align=center;verticalAlign=middle;resizable=0;points=[];autosize=1;strokeColor=none;fillColor=none;fontColor=#1A1A1A;fontSize=24;" vertex="1" parent="1">
          <mxGeometry x="-3092" y="-468.5" width="89" height="41" as="geometry" />
        </mxCell>
        <mxCell id="IWd8f2sbjNIuQyX2ivtv-39" value="" style="edgeStyle=orthogonalEdgeStyle;rounded=0;orthogonalLoop=1;jettySize=auto;html=1;strokeColor=#736CA8;fontColor=#1A1A1A;startArrow=classic;startFill=1;endArrow=classic;endFill=1;exitX=0.5;exitY=0.07;exitDx=0;exitDy=0;exitPerimeter=0;" edge="1" parent="1" source="IWd8f2sbjNIuQyX2ivtv-25" target="IWd8f2sbjNIuQyX2ivtv-35">
          <mxGeometry relative="1" as="geometry">
            <mxPoint x="-2531" y="-372" as="sourcePoint" />
            <mxPoint x="-2531" y="-534" as="targetPoint" />
          </mxGeometry>
        </mxCell>
        <mxCell id="IWd8f2sbjNIuQyX2ivtv-35" value="" style="verticalAlign=top;verticalLabelPosition=bottom;labelPosition=center;align=center;html=1;gradientDirection=north;strokeWidth=2;shape=mxgraph.networks.firewall;rounded=1;shadow=0;comic=0;labelBackgroundColor=none;fillColor=#5D7F99;strokeColor=#D0CEE2;fontColor=#1A1A1A;" vertex="1" parent="1">
          <mxGeometry x="-2552.77" y="-471" width="43.55" height="45" as="geometry" />
        </mxCell>
        <mxCell id="IWd8f2sbjNIuQyX2ivtv-43" value="" style="edgeStyle=orthogonalEdgeStyle;rounded=0;orthogonalLoop=1;jettySize=auto;html=1;entryX=0.5;entryY=0.07;entryDx=0;entryDy=0;entryPerimeter=0;labelBackgroundColor=none;fontColor=default;strokeColor=#736CA8;endArrow=classic;endFill=1;startArrow=classic;startFill=1;" edge="1" parent="1" source="IWd8f2sbjNIuQyX2ivtv-5" target="IWd8f2sbjNIuQyX2ivtv-42">
          <mxGeometry relative="1" as="geometry">
            <mxPoint x="-2969" y="-534" as="sourcePoint" />
            <mxPoint x="-2969" y="-370" as="targetPoint" />
          </mxGeometry>
        </mxCell>
        <mxCell id="IWd8f2sbjNIuQyX2ivtv-42" value="&amp;nbsp;" style="verticalAlign=top;verticalLabelPosition=bottom;labelPosition=center;align=center;html=1;gradientDirection=north;strokeWidth=2;shape=mxgraph.networks.firewall;rounded=1;shadow=0;comic=0;labelBackgroundColor=none;fillColor=#5D7F99;strokeColor=#D0CEE2;fontColor=#1A1A1A;" vertex="1" parent="1">
          <mxGeometry x="-2990.7700000000004" y="-468.5" width="43.55" height="45" as="geometry" />
        </mxCell>
        <mxCell id="IWd8f2sbjNIuQyX2ivtv-46" value="" style="edgeStyle=orthogonalEdgeStyle;rounded=0;orthogonalLoop=1;jettySize=auto;html=1;entryX=0.5;entryY=0.07;entryDx=0;entryDy=0;entryPerimeter=0;labelBackgroundColor=none;fontColor=default;strokeColor=#736CA8;startArrow=classic;startFill=1;endArrow=classic;endFill=1;" edge="1" parent="1" source="IWd8f2sbjNIuQyX2ivtv-16" target="IWd8f2sbjNIuQyX2ivtv-44">
          <mxGeometry relative="1" as="geometry">
            <mxPoint x="-2969" y="-305" as="sourcePoint" />
            <mxPoint x="-2969" y="-134" as="targetPoint" />
          </mxGeometry>
        </mxCell>
        <mxCell id="IWd8f2sbjNIuQyX2ivtv-44" value="" style="verticalAlign=top;verticalLabelPosition=bottom;labelPosition=center;align=center;html=1;gradientDirection=north;strokeWidth=2;shape=mxgraph.networks.firewall;rounded=1;shadow=0;comic=0;labelBackgroundColor=none;fillColor=#5D7F99;strokeColor=#D0CEE2;fontColor=#1A1A1A;" vertex="1" parent="1">
          <mxGeometry x="-2990.7700000000004" y="-236" width="43.55" height="45" as="geometry" />
        </mxCell>
        <mxCell id="IWd8f2sbjNIuQyX2ivtv-48" value="" style="edgeStyle=orthogonalEdgeStyle;rounded=0;orthogonalLoop=1;jettySize=auto;html=1;strokeColor=#736CA8;fontColor=#1A1A1A;startArrow=classic;startFill=1;endArrow=classic;endFill=1;" edge="1" parent="1" source="IWd8f2sbjNIuQyX2ivtv-20" target="IWd8f2sbjNIuQyX2ivtv-47">
          <mxGeometry relative="1" as="geometry">
            <mxPoint x="-2531" y="-139" as="sourcePoint" />
            <mxPoint x="-2531" y="-307" as="targetPoint" />
          </mxGeometry>
        </mxCell>
        <mxCell id="IWd8f2sbjNIuQyX2ivtv-47" value="" style="verticalAlign=top;verticalLabelPosition=bottom;labelPosition=center;align=center;html=1;gradientDirection=north;strokeWidth=2;shape=mxgraph.networks.firewall;rounded=1;shadow=0;comic=0;labelBackgroundColor=none;fillColor=#5D7F99;strokeColor=#D0CEE2;fontColor=#1A1A1A;" vertex="1" parent="1">
          <mxGeometry x="-2552.7700000000004" y="-236" width="43.55" height="45" as="geometry" />
        </mxCell>
        <mxCell id="IWd8f2sbjNIuQyX2ivtv-49" value="&lt;font style=&quot;font-size: 24px;&quot;&gt;http&lt;/font&gt;" style="text;html=1;align=center;verticalAlign=middle;resizable=0;points=[];autosize=1;strokeColor=none;fillColor=none;fontColor=#1A1A1A;fontSize=24;" vertex="1" parent="1">
          <mxGeometry x="-2933" y="-470.5" width="58" height="41" as="geometry" />
        </mxCell>
        <mxCell id="IWd8f2sbjNIuQyX2ivtv-51" value="&lt;font style=&quot;font-size: 24px;&quot;&gt;ssh&lt;/font&gt;" style="text;html=1;align=center;verticalAlign=middle;resizable=0;points=[];autosize=1;strokeColor=none;fillColor=none;fontColor=#1A1A1A;fontSize=24;" vertex="1" parent="1">
          <mxGeometry x="-3058" y="-229" width="55" height="41" as="geometry" />
        </mxCell>
        <mxCell id="IWd8f2sbjNIuQyX2ivtv-52" value="&lt;font style=&quot;font-size: 24px;&quot;&gt;ssh/ftp&lt;/font&gt;" style="text;html=1;align=center;verticalAlign=middle;resizable=0;points=[];autosize=1;strokeColor=none;fillColor=none;fontColor=#1A1A1A;fontSize=24;" vertex="1" parent="1">
          <mxGeometry x="-2934.5" y="-229" width="89" height="41" as="geometry" />
        </mxCell>
        <mxCell id="IWd8f2sbjNIuQyX2ivtv-54" value="&lt;font style=&quot;font-size: 24px;&quot;&gt;ftp/http&lt;/font&gt;" style="text;html=1;align=center;verticalAlign=middle;resizable=0;points=[];autosize=1;strokeColor=none;fillColor=none;fontColor=#1A1A1A;fontSize=24;" vertex="1" parent="1">
          <mxGeometry x="-2493" y="-233.5" width="91" height="41" as="geometry" />
        </mxCell>
        <mxCell id="IWd8f2sbjNIuQyX2ivtv-55" value="&lt;font style=&quot;font-size: 24px;&quot;&gt;ftp&lt;/font&gt;" style="text;html=1;align=center;verticalAlign=middle;resizable=0;points=[];autosize=1;strokeColor=none;fillColor=none;fontColor=#1A1A1A;fontSize=24;" vertex="1" parent="1">
          <mxGeometry x="-2615" y="-235.5" width="45" height="41" as="geometry" />
        </mxCell>
        <mxCell id="IWd8f2sbjNIuQyX2ivtv-56" value="&lt;font style=&quot;font-size: 24px;&quot;&gt;ssh&lt;/font&gt;" style="text;html=1;align=center;verticalAlign=middle;resizable=0;points=[];autosize=1;strokeColor=none;fillColor=none;fontColor=#1A1A1A;fontSize=24;" vertex="1" parent="1">
          <mxGeometry x="-2625" y="-466" width="55" height="41" as="geometry" />
        </mxCell>
        <mxCell id="IWd8f2sbjNIuQyX2ivtv-58" value="&lt;font style=&quot;font-size: 24px;&quot;&gt;http&lt;/font&gt;" style="text;html=1;align=center;verticalAlign=middle;resizable=0;points=[];autosize=1;strokeColor=none;fillColor=none;fontColor=#1A1A1A;fontSize=24;" vertex="1" parent="1">
          <mxGeometry x="-2487" y="-468.5" width="58" height="41" as="geometry" />
        </mxCell>
        <mxCell id="IWd8f2sbjNIuQyX2ivtv-59" value="&lt;font style=&quot;font-size: 20px;&quot;&gt;(5,1)&lt;/font&gt;" style="verticalAlign=top;verticalLabelPosition=bottom;labelPosition=center;align=center;html=1;gradientDirection=north;strokeWidth=2;shape=mxgraph.networks.pc;rounded=1;shadow=0;comic=0;labelBackgroundColor=none;fillColor=#5D7F99;strokeColor=#D0CEE2;fontColor=#1A1A1A;" vertex="1" parent="1">
          <mxGeometry x="-2401" y="-377" width="100" height="70" as="geometry" />
        </mxCell>
        <mxCell id="IWd8f2sbjNIuQyX2ivtv-61" value="&lt;font style=&quot;font-size: 20px;&quot;&gt;(3,1)&lt;/font&gt;" style="verticalAlign=top;verticalLabelPosition=bottom;labelPosition=center;align=center;html=1;gradientDirection=north;strokeWidth=2;shape=mxgraph.networks.pc;rounded=1;shadow=0;comic=0;labelBackgroundColor=none;fillColor=#ffe6cc;strokeColor=#d79b00;" vertex="1" parent="1">
          <mxGeometry x="-3199" y="-139" width="100" height="70" as="geometry" />
        </mxCell>
      </root>
    </mxGraphModel>
  </diagram>
</mxfile>
